<svg
	width="31"
	height="31"
	viewBox="0 0 31 31"
	fill="none"
	xmlns="http://www.w3.org/2000/svg">
	<path
		d="M21.5077 14.6665L15.6081 8.37361C15.242 7.98309 15.242 7.34992 15.6081 6.9594C15.9742 6.56887 16.5678 6.56887 16.9339 6.9594L24.4339 14.9594C24.8 15.3499 24.8 15.9831 24.4339 16.3736L16.9339 24.3736C16.5678 24.7641 15.9742 24.7641 15.6081 24.3736C15.242 23.9831 15.242 23.3499 15.6081 22.9594L21.5077 16.6665H1.271C0.753229 16.6665 0.333496 16.2188 0.333496 15.6665C0.333496 15.1142 0.753229 14.6665 1.271 14.6665H21.5077ZM28.4585 1.6665C28.4585 1.11422 28.8782 0.666504 29.396 0.666504C29.9138 0.666504 30.3335 1.11422 30.3335 1.6665V29.6665C30.3335 30.2188 29.9138 30.6665 29.396 30.6665C28.8782 30.6665 28.4585 30.2188 28.4585 29.6665V1.6665Z"
		fill="var(--primary-color)"
	/>
</svg>