<svg
	width="31"
	height="31"
	viewBox="0 0 31 31"
	fill="none"
	xmlns="http://www.w3.org/2000/svg">
	<path
		d="M9.15908 14.6665H29.3958C29.9135 14.6665 30.3333 15.1142 30.3333 15.6665C30.3333 16.2188 29.9135 16.6665 29.3958 16.6665H9.15908L15.0587 22.9594C15.4248 23.3499 15.4248 23.9831 15.0587 24.3736C14.6925 24.7641 14.099 24.7641 13.7328 24.3736L6.23284 16.3736C5.86672 15.9831 5.86672 15.3499 6.23284 14.9594L13.7328 6.9594C14.099 6.56887 14.6925 6.56887 15.0587 6.9594C15.4248 7.34992 15.4248 7.98309 15.0587 8.37361L9.15908 14.6665ZM0.333252 1.6665C0.333252 1.11422 0.752985 0.666504 1.27075 0.666504C1.78852 0.666504 2.20825 1.11422 2.20825 1.6665V29.6665C2.20825 30.2188 1.78852 30.6665 1.27075 30.6665C0.752985 30.6665 0.333252 30.2188 0.333252 29.6665V1.6665Z"
		fill="var(--primary-color)"
	/>
</svg>