<svg width="30" height="31" viewBox="0 0 30 31" fill="none" xmlns="http://www.w3.org/2000/svg">
<path d="M15.0017 22.5397C19.1442 22.5397 22.5024 19.1815 22.5024 15.0389C22.5024 10.8963 19.1442 7.53809 15.0017 7.53809C10.8592 7.53809 7.50098 10.8963 7.50098 15.0389C7.50098 19.1815 10.8592 22.5397 15.0017 22.5397Z" fill="#149DCA"/>
<path fill-rule="evenodd" clip-rule="evenodd" d="M5.62564 15.0352C5.62564 13.9988 4.78702 13.1602 3.75059 13.1602H1.87506C0.83862 13.1602 0 13.9988 0 15.0352C0 16.0717 0.83862 16.9103 1.87506 16.9103H3.75012C4.78702 16.9103 5.62564 16.0717 5.62564 15.0352Z" fill="#149DCA"/>
<path fill-rule="evenodd" clip-rule="evenodd" d="M5.7208 21.6643L4.39326 22.9923C3.66058 23.7245 3.66058 24.9114 4.39326 25.6437C5.12547 26.3759 6.31238 26.3759 7.04506 25.6437L8.37307 24.3161C9.10528 23.5839 9.10528 22.3965 8.37307 21.6643C7.63992 20.9316 6.45348 20.9316 5.7208 21.6643Z" fill="#149DCA"/>
<path fill-rule="evenodd" clip-rule="evenodd" d="M15.002 24.4111C13.9656 24.4111 13.127 25.2498 13.127 26.2862V28.1618C13.127 29.1982 13.9656 30.0369 15.002 30.0369C16.0384 30.0369 16.8771 29.1982 16.8771 28.1618L16.8752 26.2862C16.8771 25.2498 16.0366 24.4111 15.002 24.4111Z" fill="#149DCA"/>
<path fill-rule="evenodd" clip-rule="evenodd" d="M24.2811 21.666C23.5503 20.9319 22.3634 20.9319 21.6312 21.6642C20.899 22.3964 20.899 23.5838 21.6312 24.316L22.9573 25.6417C23.6895 26.3777 24.8764 26.3739 25.6087 25.6417C26.3409 24.9095 26.3427 23.7244 25.6087 22.9903L24.2811 21.666Z" fill="#149DCA"/>
<path fill-rule="evenodd" clip-rule="evenodd" d="M28.1285 13.1602L26.2493 13.1639C25.2166 13.1602 24.3779 13.9988 24.3779 15.0352C24.3742 16.0717 25.2166 16.9103 26.2493 16.9103H28.1248C29.165 16.9141 29.9998 16.0717 29.9998 15.0352C30.0017 14.0007 29.165 13.1602 28.1285 13.1602Z" fill="#149DCA"/>
<path fill-rule="evenodd" clip-rule="evenodd" d="M24.2811 8.40757L25.6068 7.08142C26.3446 6.34732 26.339 5.16227 25.6068 4.42958C24.876 3.69501 23.6895 3.69501 22.9573 4.4277L21.6312 5.75714C20.899 6.48608 20.899 7.67254 21.6312 8.40523C22.3596 9.14214 23.5503 9.13839 24.2811 8.40757Z" fill="#149DCA"/>
<path fill-rule="evenodd" clip-rule="evenodd" d="M15.002 5.65863C16.0366 5.66613 16.8771 4.82 16.8771 3.7873V1.91221C16.8771 0.872004 16.0384 0.0371219 15.002 0.0371219C13.9656 0.0333717 13.127 0.872005 13.127 1.90893L13.1307 3.78776C13.127 4.82 13.9656 5.65863 15.002 5.65863Z" fill="#149DCA"/>
<path fill-rule="evenodd" clip-rule="evenodd" d="M5.72475 8.40576C6.45368 9.13798 7.63684 9.13798 8.37139 8.40388C9.10923 7.67682 9.10548 6.48661 8.37514 5.75579L7.04901 4.43011C6.31305 3.69367 5.12989 3.69929 4.39721 4.43011C3.6589 5.16092 3.6589 6.34738 4.39158 7.08007L5.72475 8.40576Z" fill="#149DCA"/>
</svg>
