<svg
	width="48"
	height="42"
	viewBox="0 0 48 42"
	fill="none"
	xmlns="http://www.w3.org/2000/svg">
	<path
		d="M21.3641 30.7048C22.2234 30.7439 23.1016 30.772 23.9906 30.772C24.8891 30.772 25.7766 30.7532 26.6469 30.7048C25.7766 31.8298 24.9172 32.8251 24.0078 33.7735L24.0203 33.761C23.1156 32.8235 22.2469 31.8267 21.4281 30.7892L21.3641 30.7048ZM12.4609 29.4548C14.1531 29.8845 16.2172 30.2501 18.3234 30.4751L18.5281 30.4923C19.8172 32.2626 21.1203 33.8204 22.5187 35.286L22.5016 35.2673C20.4531 37.5532 17.6891 39.1595 14.5625 39.736L14.4766 39.7485C14.4703 39.7485 14.4641 39.7485 14.4578 39.7485C14.0703 39.7485 13.7047 39.6532 13.3844 39.4845L13.3969 39.4907C12.0969 38.7485 11.5328 35.9095 11.9719 32.261C12.0766 31.3626 12.2484 30.4173 12.4594 29.4532L12.4609 29.4548ZM35.5594 29.4345C35.7438 30.1751 35.9172 31.1188 36.0406 32.0782L36.0547 32.2126C36.5031 35.8595 35.95 38.6954 34.6609 39.4532C34.3734 39.6126 34.0297 39.7063 33.6641 39.7063C33.6281 39.7063 33.5922 39.7048 33.5563 39.7032H33.5609C30.3531 39.1173 27.5906 37.522 25.5469 35.2642L25.5359 35.2517C26.9094 33.8095 28.2031 32.2548 29.3891 30.6188L29.4797 30.4876C31.7859 30.247 33.8531 29.8751 35.8672 29.3673L35.5594 29.4329V29.4345ZM14.2875 23.6032C14.6781 24.3688 15.0875 25.1313 15.5375 25.897C15.9865 26.6584 16.4453 27.4022 16.9141 28.1282C15.5578 27.9298 14.2484 27.6798 12.9969 27.3751C13.3484 26.1454 13.7891 24.872 14.2859 23.6001L14.2875 23.6032ZM33.7063 23.5642C34.2234 24.847 34.6625 26.1267 35.0266 27.3673C33.7766 27.6735 32.4563 27.9329 31.0906 28.1282C31.5594 27.3954 32.0281 26.6407 32.4672 25.8673C32.9063 25.1063 33.3172 24.3282 33.7094 23.5626L33.7063 23.5642ZM10.9047 15.2063C11.5859 17.5157 12.3172 19.447 13.1687 21.3095L13.0516 21.0251C12.3234 22.5954 11.6031 24.5157 11.0125 26.4923L10.9312 26.8126C9.82812 26.4735 8.94062 26.1407 8.07656 25.7673L8.25625 25.836C4.875 24.397 2.6875 22.5048 2.6875 21.0048C2.6875 19.5048 4.875 17.6032 8.25625 16.1704C9.07656 15.8188 9.97656 15.5017 10.9047 15.2063ZM37.0594 15.1985C38.0047 15.4907 38.9031 15.8173 39.7438 16.1704C43.125 17.6157 45.3125 19.5048 45.3125 21.0048C45.3031 22.5048 43.1156 24.4017 39.7344 25.8376C38.9141 26.1892 38.0156 26.5048 37.0891 26.8001C36.4016 24.4829 35.6703 22.5532 34.8219 20.6876L34.9406 20.9813C35.6656 19.4126 36.3875 17.4923 36.9766 15.5157L37.0594 15.1938V15.1985ZM31.0781 13.8813C32.4359 14.0829 33.7438 14.3298 34.9953 14.6376C34.6438 15.872 34.2047 17.1407 33.7063 18.4126C33.3156 17.6517 32.9063 16.8845 32.4563 16.1204C32.0172 15.3548 31.5484 14.6095 31.0797 13.8829L31.0781 13.8813ZM16.9031 13.8813C16.4344 14.6173 15.9656 15.3704 15.5281 16.147C15.0891 16.9079 14.6781 17.6735 14.2875 18.4392C13.7703 17.1579 13.3313 15.8813 12.9672 14.6376C14.2172 14.3454 15.5344 14.0845 16.9016 13.8845L16.9031 13.8813ZM24 13.3845C25.4453 13.3845 26.8844 13.4501 28.3 13.5657C29.0927 14.7022 29.8625 15.9126 30.6094 17.197C31.3354 18.447 31.9979 19.7136 32.5969 20.997C31.9953 22.2767 31.3359 23.5548 30.6188 24.8048C29.8766 26.0938 29.1094 27.3204 28.3141 28.4563C26.8922 28.5798 25.4516 28.647 23.9984 28.647C22.5531 28.647 21.1141 28.5782 19.6984 28.4657C18.9062 27.3298 18.1328 26.1142 17.3891 24.8345C16.663 23.5845 16.0005 22.3178 15.4016 21.0345C15.9937 19.7517 16.6625 18.4704 17.3797 17.2188C18.1219 15.9298 18.8891 14.7079 19.6844 13.572C21.1062 13.447 22.5469 13.3813 24 13.3813V13.3845ZM23.9703 8.25791C24.8766 9.19541 25.7453 10.1907 26.5625 11.2282L26.625 11.311C25.7656 11.272 24.8875 11.2454 23.9984 11.2454C23.1 11.2454 22.2125 11.2642 21.3422 11.311C22.2109 10.186 23.0703 9.19072 23.9812 8.24228L23.9688 8.25478L23.9703 8.25791ZM14.4375 2.30166C17.6453 2.88916 20.4063 4.48447 22.4516 6.74072L22.4625 6.75322C21.0891 8.19697 19.7953 9.75166 18.6094 11.3907L18.5187 11.522C16.2141 11.761 14.1469 12.1298 12.1344 12.6376L12.4406 12.572C12.2219 11.6157 12.0594 10.6892 11.9453 9.8001C11.4969 6.15322 12.05 3.31728 13.3391 2.5626C13.6609 2.41103 14.0375 2.31728 14.4344 2.30478H14.4391L14.4375 2.30166ZM33.5156 2.2626V2.2751C33.5359 2.2751 33.5594 2.27353 33.5844 2.27353C33.9578 2.27353 34.3094 2.36572 34.6188 2.52822L34.6063 2.52197C35.9063 3.26728 36.4703 6.10479 36.0313 9.75479C35.9266 10.6532 35.7547 11.6001 35.5438 12.5657C33.8484 12.1313 31.7844 11.7642 29.6781 11.5407L29.4781 11.5235C28.1875 9.75166 26.8844 8.19385 25.4859 6.72666L25.5047 6.74541C27.5531 4.46416 30.3125 2.85791 33.4328 2.27822L33.5203 2.26416L33.5156 2.2626ZM33.525 0.134472C29.7094 0.71416 26.4062 2.56729 23.9937 5.24072L23.9812 5.25479C21.5516 2.58291 18.2484 0.742285 14.5266 0.184473L14.4391 0.173535C14.4187 0.173535 14.3938 0.173535 14.3688 0.173535C13.6016 0.173535 12.8812 0.375098 12.2578 0.728223L12.2797 0.717285C9.59531 2.26572 8.99375 7.09072 10.3797 13.1454C4.43594 14.9813 0.570312 17.9157 0.570312 21.0079C0.570312 24.1126 4.45625 27.0548 10.4172 28.8767C9.04219 34.9548 9.65625 39.7876 12.3469 41.3345C12.9375 41.6735 13.6469 41.872 14.4016 41.872C14.4359 41.872 14.4703 41.872 14.5031 41.8704H14.4984C18.3141 41.2907 21.6172 39.436 24.0297 36.761L24.0422 36.747C26.4719 39.4204 29.775 41.261 33.4969 41.8188L33.5844 41.8298C33.6078 41.8298 33.6375 41.8298 33.6656 41.8298C34.4281 41.8298 35.1453 41.6298 35.7656 41.2813L35.7438 41.2923C38.4266 39.7454 39.0297 34.9204 37.6438 28.8642C43.5656 27.0438 47.4313 24.1032 47.4313 21.0063C47.4313 17.9017 43.5453 14.9595 37.5844 13.1329C38.9594 7.06104 38.3453 2.22354 35.6547 0.675098C35.0578 0.33291 34.3422 0.131348 33.5797 0.131348C33.5594 0.131348 33.5391 0.131348 33.5187 0.131348H33.5219L33.525 0.134472ZM28.3547 21.0079C28.3547 23.4188 26.4 25.3735 23.9891 25.3735C21.5781 25.3735 19.6234 23.4188 19.6234 21.0079C19.6234 18.597 21.5781 16.6423 23.9891 16.6423C25.1953 16.6423 26.2859 17.1313 27.0766 17.9204C27.8672 18.711 28.3547 19.8017 28.3547 21.0079Z"
		fill="var(--primary-color)"
	/>
</svg>