<svg width="432" height="397" viewBox="0 0 432 397" fill="none" xmlns="http://www.w3.org/2000/svg">
<g clip-path="url(#clip0_0_3)">
<path d="M10.31 205.15C10.31 205.15 12.66 278.15 73.58 326.75C134.5 375.35 218.9 378.87 287.23 383.49C355.56 388.11 408 349.43 416 291C424 232.57 371.7 215.37 343.37 148.8C315.04 82.23 317.56 60.36 257.62 19.42C197.68 -21.52 103.86 3.57 54.7 73.71C5.53999 143.85 10.31 205.15 10.31 205.15Z" fill="#087DA4"/>
<path opacity="0.7" d="M10.31 205.15C10.31 205.15 12.66 278.15 73.58 326.75C134.5 375.35 218.9 378.87 287.23 383.49C355.56 388.11 408 349.43 416 291C424 232.57 371.7 215.37 343.37 148.8C315.04 82.23 317.56 60.36 257.62 19.42C197.68 -21.52 103.86 3.57 54.7 73.71C5.53999 143.85 10.31 205.15 10.31 205.15Z" fill="white"/>
<path d="M307.49 354.21C347.365 354.21 379.69 344.62 379.69 332.79C379.69 320.96 347.365 311.37 307.49 311.37C267.615 311.37 235.29 320.96 235.29 332.79C235.29 344.62 267.615 354.21 307.49 354.21Z" fill="#263238" stroke="#263238" stroke-width="1.193" stroke-linecap="round" stroke-linejoin="round"/>
<path d="M307.49 321.22C341.64 321.22 370.24 328.22 377.75 337.71C378.936 336.337 379.62 334.603 379.69 332.79C379.69 320.95 347.36 311.36 307.49 311.36C267.62 311.36 235.28 320.95 235.28 332.79C235.35 334.603 236.034 336.337 237.22 337.71C244.73 328.26 273.33 321.22 307.49 321.22Z" fill="white" stroke="#263238" stroke-width="1.193" stroke-linecap="round" stroke-linejoin="round"/>
<path d="M297.63 351.52C273.51 350.43 255.31 345.52 255.31 339.52C255.322 338.865 255.528 338.229 255.9 337.69" stroke="white" stroke-width="1.193" stroke-linecap="round" stroke-linejoin="round"/>
<path d="M353.6 333.68C357.73 335.43 360.09 337.43 360.09 339.56C360.09 346.29 336.63 351.74 307.7 351.74H306.45" stroke="white" stroke-width="1.193" stroke-linecap="round" stroke-linejoin="round"/>
<path d="M262.36 333.45C271.43 329.82 288.36 327.37 307.7 327.37C318.705 327.285 329.696 328.185 340.54 330.06" stroke="white" stroke-width="1.193" stroke-linecap="round" stroke-linejoin="round"/>
<path d="M296.94 343.74C290.83 342.89 286.74 341.34 286.74 339.56C286.74 336.87 296.13 334.69 307.74 334.69C319.35 334.69 328.69 336.87 328.69 339.56C328.69 341.87 321.79 343.8 312.53 344.3" stroke="white" stroke-width="1.193" stroke-linecap="round" stroke-linejoin="round"/>
<path d="M17.52 246.68C49.01 237.73 115.27 220.07 151.84 218.74C201 217 284 252.68 335.82 258.93C387.64 265.18 422.46 263.4 422.46 263.4" stroke="#263238" stroke-width="1.193" stroke-linecap="round" stroke-linejoin="round"/>
<path d="M0 251.79C0 251.79 2.72 250.96 7.49 249.57" stroke="#263238" stroke-width="1.193" stroke-linecap="round" stroke-linejoin="round"/>
<path d="M408.47 196.12C390.318 192.133 371.747 190.376 353.17 190.89C314.75 192.18 273.17 197.26 221.76 203.89C170.35 210.52 97.14 173.89 47.36 187.48C-2.42001 201.07 1.35999 205.16 1.35999 205.16" stroke="#263238" stroke-width="1.193" stroke-linecap="round" stroke-linejoin="round"/>
<path d="M422.63 199.8C422.63 199.8 420.69 199.16 417.18 198.23" stroke="#263238" stroke-width="1.193" stroke-linecap="round" stroke-linejoin="round"/>
<path d="M330.45 105.35C329.897 103.102 328.606 101.105 326.784 99.6775C324.962 98.2497 322.715 97.4739 320.4 97.4739C318.085 97.4739 315.838 98.2497 314.016 99.6775C312.194 101.105 310.903 103.102 310.35 105.35H330.45Z" stroke="#263238" stroke-width="1.193" stroke-linecap="round" stroke-linejoin="round"/>
<path d="M432 105.35C431.393 102.789 430.011 100.476 428.042 98.7284C426.074 96.9802 423.615 95.8809 421 95.58C421.822 91.2359 421.674 86.7638 420.567 82.4835C419.459 78.2033 417.419 74.2209 414.593 70.8211C411.766 67.4213 408.223 64.6883 404.217 62.8176C400.211 60.9469 395.841 59.9847 391.42 60C384.36 60.0003 377.525 62.4839 372.112 67.016C366.698 71.5481 363.052 77.84 361.81 84.79C358.971 82.5698 355.565 81.1926 351.981 80.8156C348.396 80.4385 344.778 81.0769 341.54 82.6577C338.301 84.2385 335.572 86.6982 333.664 89.7558C331.756 92.8135 330.746 96.346 330.75 99.95C330.756 101.785 331.022 103.61 331.54 105.37L432 105.35Z" stroke="#263238" stroke-width="1.193" stroke-linecap="round" stroke-linejoin="round"/>
<path d="M151.57 129.49C151.295 128.343 150.641 127.323 149.715 126.593C148.789 125.862 147.644 125.465 146.465 125.465C145.286 125.465 144.141 125.862 143.215 126.593C142.289 127.323 141.635 128.343 141.36 129.49H151.57Z" stroke="#263238" stroke-width="1.193" stroke-linecap="round" stroke-linejoin="round"/>
<path d="M203.12 129.49C202.816 128.183 202.116 127.001 201.116 126.106C200.115 125.211 198.863 124.647 197.53 124.49C198.011 122.473 198.076 120.378 197.721 118.335C197.367 116.292 196.599 114.342 195.466 112.605C194.333 110.868 192.858 109.38 191.131 108.231C189.404 107.083 187.461 106.299 185.42 105.926C183.38 105.553 181.286 105.6 179.264 106.064C177.242 106.527 175.337 107.398 173.663 108.622C171.988 109.846 170.581 111.399 169.527 113.185C168.473 114.971 167.793 116.953 167.53 119.01C166.089 117.884 164.36 117.185 162.541 116.994C160.722 116.802 158.886 117.126 157.242 117.928C155.598 118.729 154.213 119.977 153.243 121.528C152.274 123.079 151.76 124.871 151.76 126.7C151.765 127.634 151.899 128.563 152.16 129.46L203.12 129.49Z" stroke="#263238" stroke-width="1.193" stroke-linecap="round" stroke-linejoin="round"/>
<path d="M197.93 145.63C197.758 144.906 197.346 144.261 196.762 143.799C196.177 143.338 195.455 143.087 194.71 143.087C193.965 143.087 193.243 143.338 192.658 143.799C192.074 144.261 191.662 144.906 191.49 145.63H197.93Z" stroke="#263238" stroke-width="1.193" stroke-linecap="round" stroke-linejoin="round"/>
<path d="M230.47 145.63C230.276 144.808 229.832 144.067 229.2 143.506C228.568 142.946 227.779 142.595 226.94 142.5C227.049 141.916 227.102 141.324 227.1 140.73C227.07 138.345 226.157 136.055 224.537 134.304C222.918 132.553 220.706 131.465 218.33 131.25C215.955 131.034 213.584 131.708 211.676 133.139C209.767 134.571 208.458 136.659 208 139C207.09 138.29 205.999 137.85 204.851 137.729C203.702 137.609 202.544 137.814 201.506 138.321C200.469 138.828 199.595 139.616 198.984 140.595C198.373 141.574 198.049 142.706 198.05 143.86C198.051 144.449 198.135 145.035 198.3 145.6L230.47 145.63Z" stroke="#263238" stroke-width="1.193" stroke-linecap="round" stroke-linejoin="round"/>
<path d="M128.65 260.83C128.298 260.835 127.952 260.741 127.65 260.56C127.213 260.29 126.896 259.862 126.766 259.365C126.635 258.868 126.701 258.34 126.95 257.89C127.44 257.03 251.08 122.2 307.65 72.76C307.847 72.6015 308.097 72.5237 308.35 72.5422C308.602 72.5608 308.838 72.6743 309.01 72.86C309.174 73.0586 309.256 73.313 309.237 73.5701C309.219 73.8272 309.101 74.0672 308.91 74.24C252.62 123.47 130.81 259 130.32 259.85C130.153 260.147 129.911 260.394 129.618 260.566C129.324 260.738 128.99 260.829 128.65 260.83Z" fill="#263238"/>
<path d="M135.48 234C135.48 234 141.61 227.46 145.29 227.46C148.97 227.46 155.92 233.59 155.51 236.86C155.1 240.13 148.97 237.27 148.97 237.27C148.97 237.27 143.24 245.04 137.52 243.81C131.8 242.58 135.48 234 135.48 234Z" fill="#087DA4" stroke="#263238" stroke-width="1.193" stroke-linecap="round" stroke-linejoin="round"/>
<path d="M149 237.25C149 237.25 152.75 239.85 153.08 241.68C153.41 243.51 148.92 248.68 143.93 249.84C138.94 251 136.27 248.17 137.77 245.51C139.27 242.85 145.22 237.49 149 237.25Z" fill="#087DA4" stroke="#263238" stroke-width="1.193" stroke-linecap="round" stroke-linejoin="round"/>
<path d="M303 213.56V78.27C303 78.27 300.27 88.06 300.27 88.77" stroke="#263238" stroke-width="1.193" stroke-linecap="round" stroke-linejoin="round"/>
<path d="M359.42 220.69H255.68V303.81H359.42V220.69Z" fill="#087DA4" stroke="#263238" stroke-width="1.193" stroke-linecap="round" stroke-linejoin="round"/>
<path d="M304.48 220.34V215.58C304.48 215.264 304.355 214.962 304.131 214.739C303.908 214.515 303.606 214.39 303.29 214.39C302.974 214.39 302.672 214.515 302.449 214.739C302.225 214.962 302.1 215.264 302.1 215.58V220.34H304.48Z" fill="#263238"/>
<path d="M314 208.76V209C313.903 208.818 313.759 208.665 313.583 208.558C313.408 208.451 313.206 208.393 313 208.39C312.682 208.39 312.376 208.516 312.151 208.741C311.926 208.967 311.8 209.272 311.8 209.59V222.3C311.8 223.272 311.415 224.204 310.729 224.892C310.043 225.58 309.112 225.967 308.14 225.97C307.637 225.971 307.139 225.865 306.68 225.66C306.415 226.055 306.299 226.532 306.354 227.005C306.409 227.478 306.631 227.916 306.98 228.24C307.362 228.312 307.751 228.349 308.14 228.35C308.935 228.35 309.721 228.194 310.455 227.889C311.189 227.585 311.856 227.14 312.418 226.578C312.98 226.016 313.425 225.349 313.729 224.615C314.033 223.881 314.19 223.094 314.19 222.3V216.41H316.93L314 208.76Z" fill="#263238"/>
<path d="M303.1 77C303.1 77 305.22 69.47 303.34 70.17C301.46 70.87 303.1 77 303.1 77Z" stroke="#263238" stroke-width="1.193" stroke-linecap="round" stroke-linejoin="round"/>
<path d="M303.1 77C303.1 77 295.1 74.17 295.81 76.76C296.52 79.35 303.1 77 303.1 77Z" stroke="#263238" stroke-width="1.193" stroke-linecap="round" stroke-linejoin="round"/>
<path d="M130.59 142.63C130.59 142.63 120.72 137.1 101.36 139.87C82 142.64 78.31 158.6 81.47 175.19C84.63 191.78 102.94 205.83 105.71 204.65C108.48 203.47 104.92 166.33 111.24 159.22C117.56 152.11 138.1 153.3 139.24 147.77C140.38 142.24 130.59 142.63 130.59 142.63Z" fill="#263238" stroke="#263238" stroke-width="1.193" stroke-linecap="round" stroke-linejoin="round"/>
<path d="M96.18 152.48L98.18 165.55C98.18 165.55 85.78 199.4 87.79 204.1C89.8 208.8 108.56 210.46 108.56 210.46C108.56 210.46 139.06 214.15 148.11 210.46C157.16 206.77 152.47 196.05 151.46 193.04C150.45 190.03 144.76 165.89 144.76 165.89C144.76 165.89 146.76 160.19 146.76 157.18C146.76 154.17 146.42 145.78 145.08 143.77C143.74 141.76 120.28 139.41 109.89 141.09C99.5 142.77 94.84 145.45 96.18 152.48Z" fill="#757575" stroke="#263238" stroke-width="1.193" stroke-linecap="round" stroke-linejoin="round"/>
<path d="M101.55 167.57C101.55 167.57 101.21 196.72 102.89 202.42C104.57 208.12 111.27 214.82 125.34 213.14C139.41 211.46 140.76 198.06 140.76 198.06L139.76 166.9L101.55 167.57Z" fill="white" stroke="#263238" stroke-width="1.193" stroke-linecap="round" stroke-linejoin="round"/>
<path d="M125.68 188.51C125.682 189.009 125.536 189.497 125.26 189.913C124.984 190.328 124.592 190.653 124.131 190.845C123.671 191.038 123.164 191.089 122.675 190.993C122.185 190.897 121.735 190.657 121.382 190.305C121.028 189.953 120.787 189.504 120.689 189.015C120.591 188.526 120.64 188.019 120.831 187.558C121.021 187.097 121.344 186.703 121.759 186.425C122.174 186.148 122.661 186 123.16 186C123.49 185.999 123.818 186.063 124.124 186.188C124.429 186.314 124.707 186.498 124.941 186.732C125.175 186.965 125.361 187.242 125.488 187.547C125.615 187.852 125.68 188.18 125.68 188.51Z" stroke="#263238" stroke-width="1.193" stroke-miterlimit="10"/>
<path d="M125.34 199.07C125.34 199.403 125.241 199.728 125.056 200.004C124.871 200.281 124.608 200.496 124.301 200.623C123.993 200.75 123.655 200.783 123.329 200.717C123.002 200.651 122.703 200.49 122.469 200.254C122.234 200.018 122.075 199.718 122.011 199.392C121.947 199.065 121.982 198.727 122.111 198.42C122.239 198.113 122.456 197.852 122.734 197.668C123.012 197.485 123.337 197.388 123.67 197.39C123.89 197.39 124.108 197.434 124.311 197.518C124.515 197.603 124.699 197.727 124.854 197.883C125.01 198.039 125.132 198.224 125.216 198.428C125.299 198.632 125.341 198.85 125.34 199.07Z" fill="#263238"/>
<path d="M115.22 177.76C116.29 178.92 116.66 180.31 116.06 180.88C115.46 181.45 114.06 180.97 113.01 179.82C111.96 178.67 111.56 177.28 112.17 176.71C112.78 176.14 114.15 176.61 115.22 177.76Z" fill="#263238"/>
<path d="M128.83 177.76C127.76 178.92 127.38 180.31 127.99 180.88C128.6 181.45 129.99 180.97 130.99 179.82C131.99 178.67 132.44 177.28 131.83 176.71C131.22 176.14 129.9 176.61 128.83 177.76Z" fill="#263238"/>
<path d="M108.06 173.81C108.811 172.702 109.89 171.857 111.145 171.395C112.401 170.932 113.77 170.874 115.06 171.23" stroke="#263238" stroke-width="1.193" stroke-linecap="round" stroke-linejoin="round"/>
<path d="M128.3 171.6C128.3 171.6 133.08 170.13 134.56 174.18" stroke="#263238" stroke-width="1.193" stroke-linecap="round" stroke-linejoin="round"/>
<path d="M144.44 358.62C144.44 358.62 149.71 355.46 152.63 354.22C152.904 354.094 153.184 353.984 153.47 353.89C156.05 353.03 163.36 353.46 170.23 349.16C177.1 344.86 173.67 339.7 168.51 338.41C163.35 337.12 157.77 335.41 157.77 335.41L156.48 315.2C156.48 315.2 141 319.5 135.84 321.65C130.68 323.8 133.69 354.32 134.12 356.9C134.55 359.48 134.55 361.2 144.44 358.62Z" fill="#263238" stroke="#263238" stroke-width="1.193" stroke-linecap="round" stroke-linejoin="round"/>
<path d="M161.64 349.16C152.64 350.88 152.64 352.6 142.72 354.32C139.814 354.9 136.851 355.142 133.89 355.04C133.99 355.96 134.07 356.61 134.12 356.9C134.55 359.48 134.55 361.2 144.44 358.62C144.44 358.62 149.71 355.46 152.63 354.22C152.904 354.094 153.184 353.984 153.47 353.89C156.05 353.03 163.36 353.46 170.23 349.16C172.44 347.79 173.57 346.32 173.94 344.92C170.035 346.847 165.903 348.272 161.64 349.16Z" fill="white" stroke="#263238" stroke-width="1.193" stroke-linecap="round" stroke-linejoin="round"/>
<path d="M165.22 338.15C165.22 338.15 164.89 361.61 164.22 366.63C163.55 371.65 164.55 378.03 172.22 378.03C179.89 378.03 195.01 373.03 200.37 372.03C205.73 371.03 214.45 368.67 218.13 360.3C221.81 351.93 199.37 352.92 199.37 352.92L200.71 335.83C200.71 335.83 177.62 340.49 165.22 338.15Z" fill="#263238" stroke="#263238" stroke-width="1.193" stroke-linecap="round" stroke-linejoin="round"/>
<path d="M218.17 360.27C218.581 359.457 218.68 358.522 218.45 357.64C216.153 360.759 213.038 363.181 209.45 364.64C201.45 367.99 186.32 371.64 174.93 373.36C169.72 374.12 166.42 373.27 164.35 372.13C165.09 375.38 167.26 378.05 172.25 378.05C179.96 378.05 195.04 373.05 200.4 372.05C205.76 371.05 214.49 368.64 218.17 360.27Z" fill="white" stroke="#263238" stroke-width="1.193" stroke-linecap="round" stroke-linejoin="round"/>
<path d="M199.41 352.89C199.41 352.89 201.08 358.59 196.41 362.28" stroke="white" stroke-width="1.193" stroke-linecap="round" stroke-linejoin="round"/>
<path d="M162.88 325.75C162.88 325.75 162.36 335.94 162.93 337.98C165.07 345.72 165.75 343.91 181.84 343.57C197.93 343.23 204.43 336.81 206.11 332.79C207.79 328.77 206.11 320.05 205.44 317.03C204.77 314.01 199.44 313.03 197.39 313.35C195.34 313.67 163.88 322.4 162.88 325.75Z" fill="#757575" stroke="#263238" stroke-width="1.193" stroke-linecap="round" stroke-linejoin="round"/>
<path d="M52.28 351.22V373.74C52.2875 374.621 52.5354 375.484 52.9971 376.235C53.4589 376.985 54.1168 377.596 54.9 378L91.1 396.69C91.7441 397.025 92.4556 397.21 93.1812 397.23C93.9069 397.251 94.6278 397.107 95.29 396.81L148.62 376.48C149.471 376.099 150.193 375.479 150.701 374.697C151.208 373.915 151.479 373.002 151.48 372.07V344.85L90.48 363.28L52.28 351.22Z" fill="#087DA4"/>
<mask id="mask0_0_3" style="mask-type:luminance" maskUnits="userSpaceOnUse" x="52" y="344" width="100" height="54">
<path d="M52.28 351.22V373.74C52.2875 374.621 52.5354 375.484 52.9971 376.235C53.4589 376.985 54.1168 377.596 54.9 378L91.1 396.69C91.7441 397.025 92.4556 397.21 93.1812 397.23C93.9069 397.251 94.6278 397.107 95.29 396.81L148.62 376.48C149.471 376.099 150.193 375.479 150.701 374.697C151.208 373.915 151.479 373.002 151.48 372.07V344.85L90.48 363.28L52.28 351.22Z" fill="white"/>
</mask>
<g mask="url(#mask0_0_3)">
<path opacity="0.18" d="M93.17 362.47L90.49 363.28L52.28 351.22V373.74C52.2875 374.621 52.5354 375.484 52.9971 376.235C53.4589 376.985 54.1168 377.596 54.9 378L91.1 396.69C91.7401 397.025 92.448 397.209 93.17 397.23V362.47Z" fill="black"/>
</g>
<path d="M52.28 351.22V373.74C52.2875 374.621 52.5354 375.484 52.9971 376.235C53.4589 376.985 54.1168 377.596 54.9 378L91.1 396.69C91.7441 397.025 92.4556 397.21 93.1812 397.23C93.9069 397.251 94.6278 397.107 95.29 396.81L148.62 376.48C149.471 376.099 150.193 375.479 150.701 374.697C151.208 373.915 151.479 373.002 151.48 372.07V344.85L90.48 363.28L52.28 351.22Z" stroke="#263238" stroke-width="1.193" stroke-linecap="round" stroke-linejoin="round"/>
<path d="M108 313.2L49.5 332C49.0428 332.147 48.6442 332.435 48.3619 332.823C48.0796 333.212 47.9283 333.68 47.93 334.16V350.84C47.9389 351.26 48.0641 351.67 48.2919 352.023C48.5196 352.376 48.8409 352.659 49.22 352.84L90 372.25C90.2746 372.381 90.5728 372.456 90.8769 372.47C91.181 372.484 91.4847 372.436 91.77 372.33L153 349.42C153.433 349.259 153.807 348.97 154.071 348.591C154.336 348.213 154.478 347.762 154.48 347.3L154.59 331.65C154.587 331.132 154.408 330.631 154.083 330.227C153.758 329.824 153.305 329.543 152.8 329.43L109.16 313.14C108.774 313.063 108.376 313.084 108 313.2Z" fill="white"/>
<mask id="mask1_0_3" style="mask-type:luminance" maskUnits="userSpaceOnUse" x="47" y="313" width="108" height="60">
<path d="M108 313.2L49.5 332C49.0428 332.147 48.6442 332.435 48.3619 332.823C48.0796 333.212 47.9283 333.68 47.93 334.16V350.84C47.9389 351.26 48.0641 351.67 48.2919 352.023C48.5196 352.376 48.8409 352.659 49.22 352.84L90 372.25C90.2746 372.381 90.5728 372.456 90.8769 372.47C91.181 372.484 91.4847 372.436 91.77 372.33L153 349.42C153.433 349.259 153.807 348.97 154.071 348.591C154.336 348.213 154.478 347.762 154.48 347.3L154.59 331.65C154.587 331.132 154.408 330.631 154.083 330.227C153.758 329.824 153.305 329.543 152.8 329.43L109.16 313.14C108.774 313.063 108.376 313.084 108 313.2Z" fill="white"/>
</mask>
<g mask="url(#mask1_0_3)">
<path d="M89.93 372.24C90.2046 372.371 90.5028 372.446 90.8069 372.46C91.1109 372.474 91.4147 372.426 91.7 372.32L153 349.42C153.433 349.259 153.807 348.97 154.071 348.591C154.336 348.212 154.478 347.762 154.48 347.3L154.59 331.65C154.592 331.117 154.4 330.602 154.05 330.2L90.8 353.56L89.93 372.24Z" fill="#087DA4"/>
<path opacity="0.5" d="M89.93 372.24C90.2046 372.371 90.5028 372.446 90.8069 372.46C91.1109 372.474 91.4147 372.426 91.7 372.32L153 349.42C153.433 349.259 153.807 348.97 154.071 348.591C154.336 348.212 154.478 347.762 154.48 347.3L154.59 331.65C154.592 331.117 154.4 330.602 154.05 330.2L90.8 353.56L89.93 372.24Z" fill="white"/>
<path d="M47.93 334.11V350.79C47.9389 351.21 48.0641 351.619 48.2919 351.973C48.5197 352.326 48.8409 352.609 49.22 352.79L90 372.25C90.2722 372.381 90.5681 372.456 90.87 372.47V353.56L48 333.72C47.9613 333.847 47.9378 333.978 47.93 334.11Z" fill="#087DA4"/>
</g>
<path d="M108 313.2L49.5 332C49.0428 332.147 48.6442 332.435 48.3619 332.823C48.0796 333.212 47.9283 333.68 47.93 334.16V350.84C47.9389 351.26 48.0641 351.67 48.2919 352.023C48.5196 352.376 48.8409 352.659 49.22 352.84L90 372.25C90.2746 372.381 90.5728 372.456 90.8769 372.47C91.1809 372.484 91.4847 372.436 91.77 372.33L153 349.42C153.433 349.259 153.807 348.97 154.071 348.591C154.336 348.212 154.478 347.762 154.48 347.3L154.59 331.65C154.587 331.132 154.408 330.631 154.083 330.227C153.758 329.824 153.305 329.543 152.8 329.43L109.16 313.14C108.774 313.063 108.376 313.084 108 313.2Z" stroke="#263238" stroke-width="1.193" stroke-linecap="round" stroke-linejoin="round"/>
<path d="M188.35 282.52C188.35 282.52 196.05 286.2 200.08 293.58C204.11 300.96 201.08 315.02 198.73 319.38C196.38 323.74 180.64 325.75 175.28 325.75C169.92 325.75 168.91 325.08 168.91 325.08C168.91 325.08 151.82 328.43 141.09 330.44C130.36 332.45 133.09 307.32 136.4 295.92C139.71 284.52 158.52 278.83 166.23 278.83C173.94 278.83 188.35 282.52 188.35 282.52Z" fill="#263238" stroke="#263238" stroke-width="1.193" stroke-linecap="round" stroke-linejoin="round"/>
<path d="M168.91 325.08C168.91 325.08 183.32 320.08 189.35 307.32" stroke="white" stroke-width="1.193" stroke-linecap="round" stroke-linejoin="round"/>
<path d="M182.65 317.7C187.294 315.753 191.508 312.909 195.05 309.33" stroke="white" stroke-width="1.193" stroke-linecap="round" stroke-linejoin="round"/>
<path d="M148.8 293.58C148.8 293.58 152.8 314.69 150.8 323.4C148.8 332.11 137.06 333.46 134.38 332.45C131.7 331.44 133.04 310.67 133.04 300.28C133.04 289.89 143.44 290.56 148.8 293.58Z" fill="#757575" stroke="#263238" stroke-width="1.193" stroke-linecap="round" stroke-linejoin="round"/>
<path d="M63.34 237.27C63.34 237.27 61 251 62.67 257.72C63.5208 261.463 65.1158 264.996 67.36 268.11C67.36 268.11 58.98 280.51 60.66 290.89C62.34 301.27 66.66 302.62 66.66 302.62C66.66 302.62 62.98 321.73 69.66 328.43C76.34 335.13 91.11 342.5 107.53 339.49C123.95 336.48 135.01 335.8 138.36 330.1C141.71 324.4 139.7 299.27 139.7 299.27C139.7 299.27 139.03 271.46 138.36 254.36C137.69 237.26 135.36 223.53 127.3 216.83C119.24 210.13 83.73 220.52 73.01 227.55C62.29 234.58 63.34 237.27 63.34 237.27Z" fill="#087DA4"/>
<mask id="mask2_0_3" style="mask-type:luminance" maskUnits="userSpaceOnUse" x="60" y="214" width="81" height="127">
<path d="M63.34 237.27C63.34 237.27 61 251 62.67 257.72C63.5208 261.463 65.1158 264.996 67.36 268.11C67.36 268.11 58.98 280.51 60.66 290.89C62.34 301.27 66.66 302.62 66.66 302.62C66.66 302.62 62.98 321.73 69.66 328.43C76.34 335.13 91.11 342.5 107.53 339.49C123.95 336.48 135.01 335.8 138.36 330.1C141.71 324.4 139.7 299.27 139.7 299.27C139.7 299.27 139.03 271.46 138.36 254.36C137.69 237.26 135.36 223.53 127.3 216.83C119.24 210.13 83.73 220.52 73.01 227.55C62.29 234.58 63.34 237.27 63.34 237.27Z" fill="white"/>
</mask>
<g mask="url(#mask2_0_3)">
<path opacity="0.3" d="M65.73 237.27C65.73 237.27 63.38 251.01 65.06 257.72C65.9058 261.464 67.5012 264.999 69.75 268.11C69.75 268.11 61.37 280.51 63.05 290.89C64.73 301.27 69.05 302.62 69.05 302.62C69.05 302.62 65.36 321.73 72.05 328.43C78.74 335.13 93.54 342.5 110 339.49C126.46 336.48 137.49 335.8 140.84 330.1C144.19 324.4 142.18 299.27 142.18 299.27C142.18 299.27 141.51 271.46 140.84 254.36C140.17 237.26 137.84 223.53 129.78 216.83C121.72 210.13 86.21 220.52 75.49 227.55C64.77 234.58 65.73 237.27 65.73 237.27Z" fill="black"/>
</g>
<path d="M63.34 237.27C63.34 237.27 61 251 62.67 257.72C63.5208 261.463 65.1158 264.996 67.36 268.11C67.36 268.11 58.98 280.51 60.66 290.89C62.34 301.27 66.66 302.62 66.66 302.62C66.66 302.62 62.98 321.73 69.66 328.43C76.34 335.13 91.11 342.5 107.53 339.49C123.95 336.48 135.01 335.8 138.36 330.1C141.71 324.4 139.7 299.27 139.7 299.27C139.7 299.27 139.03 271.46 138.36 254.36C137.69 237.26 135.36 223.53 127.3 216.83C119.24 210.13 83.73 220.52 73.01 227.55C62.29 234.58 63.34 237.27 63.34 237.27Z" stroke="#263238" stroke-width="1.193" stroke-linecap="round" stroke-linejoin="round"/>
<path d="M67.36 268.11C72.5484 271.649 78.4842 273.942 84.7045 274.809C90.9248 275.676 97.2614 275.095 103.22 273.11" stroke="#263238" stroke-width="1.193" stroke-linecap="round" stroke-linejoin="round"/>
<path d="M66.69 302.62C66.69 302.62 83.78 319.38 111.94 303.29" stroke="#263238" stroke-width="1.193" stroke-linecap="round" stroke-linejoin="round"/>
<path d="M133.38 220.85C133.38 220.85 127.02 211.13 118.3 205.77C109.58 200.41 87.14 196.39 78.09 194.71C69.04 193.03 59.32 193.71 56.64 203.71C53.96 213.71 54.29 230.52 56.97 237.89C59.65 245.26 70.71 249.62 79.43 244.6C88.15 239.58 112.27 220.13 120.65 219.13C129.03 218.13 132.71 224.54 133.38 220.85Z" fill="#757575"/>
<mask id="mask3_0_3" style="mask-type:luminance" maskUnits="userSpaceOnUse" x="54" y="194" width="80" height="53">
<path d="M133.38 220.85C133.38 220.85 127.02 211.13 118.3 205.77C109.58 200.41 87.14 196.39 78.09 194.71C69.04 193.03 59.32 193.71 56.64 203.71C53.96 213.71 54.29 230.52 56.97 237.89C59.65 245.26 70.71 249.62 79.43 244.6C88.15 239.58 112.27 220.13 120.65 219.13C129.03 218.13 132.71 224.54 133.38 220.85Z" fill="white"/>
</mask>
<g mask="url(#mask3_0_3)">
<path opacity="0.3" d="M114.79 219C119.9 216.87 107.12 220.7 106.27 219.42C105.42 218.14 115.21 211.76 117.34 210.91C119.47 210.06 104.99 213.04 105.42 210.91C105.85 208.78 119.47 208.35 110.1 206.22C100.73 204.09 70.1 198.55 64.1 196.42C63.6411 196.271 63.2064 196.055 62.81 195.78C61.2585 196.58 59.9017 197.712 58.8355 199.094C57.7694 200.476 57.0199 202.076 56.64 203.78C53.96 213.83 54.29 230.59 56.97 237.96C59.31 244.38 67.97 248.51 75.97 246.16C79.66 243.16 83.07 239.22 88.84 235.59C100.31 228.33 109.68 221.09 114.79 219Z" fill="black"/>
</g>
<path d="M133.38 220.85C133.38 220.85 127.02 211.13 118.3 205.77C109.58 200.41 87.14 196.39 78.09 194.71C69.04 193.03 59.32 193.71 56.64 203.71C53.96 213.71 54.29 230.52 56.97 237.89C59.65 245.26 70.71 249.62 79.43 244.6C88.15 239.58 112.27 220.13 120.65 219.13C129.03 218.13 132.71 224.54 133.38 220.85Z" stroke="#263238" stroke-width="1.193" stroke-linecap="round" stroke-linejoin="round"/>
<path d="M169.58 266.43C169.58 266.43 177.29 267.43 182.31 269.43C187.33 271.43 190.69 283.84 188.68 285.51C186.67 287.18 182.68 285.18 182.68 285.18C179.528 286.289 176.271 287.073 172.96 287.52C168.91 287.88 164.55 268.78 169.58 266.43Z" fill="#087DA4" stroke="#263238" stroke-width="1.193" stroke-linecap="round" stroke-linejoin="round"/>
<path d="M144.11 265.42C144.11 265.42 145.45 265.42 152.82 262.07C160.19 258.72 166.23 258.72 170.92 266.07C175.61 273.42 177.62 282.5 174.92 287.86C172.22 293.22 162.19 296.91 156.82 296.91C151.45 296.91 150.82 289.91 150.82 289.91C150.82 289.91 150.15 278.85 146.82 274.83C143.49 270.81 142.77 266.43 144.11 265.42Z" fill="#757575" stroke="#263238" stroke-width="1.193" stroke-linecap="round" stroke-linejoin="round"/>
<path d="M119.31 220.85C126.68 218.17 136.07 219.85 139.42 229.23C142.77 238.61 145.78 266.09 145.78 266.09C145.78 266.09 154.16 267.09 157.51 270.79C160.86 274.49 162.51 283.86 161.87 288.55C161.23 293.24 149.47 301.95 136.07 302.29C122.67 302.63 112.94 296.29 108.25 279.16C103.56 262.03 105.42 236 105.42 236C105.42 236 107.12 228.33 109.68 226.62" fill="#087DA4"/>
<mask id="mask4_0_3" style="mask-type:luminance" maskUnits="userSpaceOnUse" x="105" y="219" width="58" height="84">
<path d="M119.31 220.85C126.68 218.17 136.07 219.85 139.42 229.23C142.77 238.61 145.78 266.09 145.78 266.09C145.78 266.09 154.16 267.09 157.51 270.79C160.86 274.49 162.51 283.86 161.87 288.55C161.23 293.24 149.47 301.95 136.07 302.29C122.67 302.63 112.94 296.29 108.25 279.16C103.56 262.03 105.42 236 105.42 236C105.42 236 107.12 228.33 109.68 226.62" fill="white"/>
</mask>
<g mask="url(#mask4_0_3)">
<path opacity="0.3" d="M161.87 288.55C162.54 283.86 160.87 274.47 157.51 270.79C157.38 270.64 157.22 270.5 157.08 270.36C157.482 273.372 157.722 276.403 157.8 279.44C158.47 299.11 130.98 295.82 125.44 281.57C122.44 273.9 121.6 240.25 112.66 237.7C107.5 236.23 105.74 240.27 105.18 243.96C105 253.61 105.32 268.48 108.25 279.16C112.94 296.26 122.66 302.62 136.07 302.29C149.48 301.96 161.2 293.24 161.87 288.55Z" fill="black"/>
</g>
<path d="M119.31 220.85C126.68 218.17 136.07 219.85 139.42 229.23C142.77 238.61 145.78 266.09 145.78 266.09C145.78 266.09 154.16 267.09 157.51 270.79C160.86 274.49 162.51 283.86 161.87 288.55C161.23 293.24 149.47 301.95 136.07 302.29C122.67 302.63 112.94 296.29 108.25 279.16C103.56 262.03 105.42 236 105.42 236C105.42 236 107.12 228.33 109.68 226.62" stroke="#263238" stroke-width="1.193" stroke-linecap="round" stroke-linejoin="round"/>
<path d="M145.78 266.09C145.78 266.09 148.4 278.3 134.94 285" stroke="#263238" stroke-width="1.193" stroke-linecap="round" stroke-linejoin="round"/>
<path d="M79.1 53.25C79.1 50.47 80.38 48.42 83.27 48.42C86.16 48.42 87.5 50.42 87.5 53.25V63C87.5 65.78 86.21 67.83 83.27 67.83C80.33 67.83 79.1 65.83 79.1 63V53.25ZM80.35 63.09C80.35 65.17 81.17 66.69 83.27 66.69C85.37 66.69 86.27 65.17 86.27 63.09V53.17C86.27 51.1 85.43 49.57 83.27 49.57C81.11 49.57 80.35 51.1 80.35 53.17V63.09Z" fill="#263238"/>
<path d="M89.49 53.25C89.49 50.47 90.77 48.42 93.66 48.42C96.55 48.42 97.89 50.42 97.89 53.25V63C97.89 65.78 96.61 67.83 93.66 67.83C90.71 67.83 89.49 65.83 89.49 63V53.25ZM90.74 63.09C90.74 65.17 91.56 66.69 93.66 66.69C95.76 66.69 96.66 65.17 96.66 63.09V53.17C96.66 51.1 95.82 49.57 93.66 49.57C91.5 49.57 90.74 51.1 90.74 53.17V63.09Z" fill="#263238"/>
<path d="M103.92 48.59C106.86 48.59 108.01 50.44 108.01 53.22V55.3C108.01 58.3 106.61 59.82 103.59 59.82H101.22V67.68H100V48.59H103.92ZM103.59 58.68C105.8 58.68 106.75 57.68 106.75 55.38V53.14C106.75 51.07 106.04 49.73 103.92 49.73H101.22V58.73L103.59 58.68Z" fill="#263238"/>
<path d="M117.93 53.2V53.6H116.73V53.11C116.73 51.11 115.97 49.57 113.9 49.57C111.83 49.57 111.06 51.07 111.06 53.09C111.06 57.72 117.96 57.8 117.96 63.09C117.96 65.84 116.76 67.86 113.84 67.86C110.92 67.86 109.73 65.86 109.73 63.09V62.09H110.93V63.15C110.93 65.15 111.72 66.67 113.82 66.67C115.92 66.67 116.71 65.19 116.71 63.15C116.71 58.57 109.81 58.49 109.81 53.15C109.81 50.29 111.06 48.43 113.87 48.4C116.68 48.37 117.93 50.44 117.93 53.2Z" fill="#263238"/>
<path d="M121.07 65.28V67.68H119.85V65.28H121.07Z" fill="#263238"/>
<path d="M124.48 65.28V67.68H123.26V65.28H124.48Z" fill="#263238"/>
<path d="M127.89 65.28V67.68H126.66V65.28H127.89Z" fill="#263238"/>
<path d="M83.13 76.36C86.13 76.36 87.22 78.21 87.22 81V83.07C87.22 86.07 85.83 87.6 82.81 87.6H80.43V95.45H79.18V76.36H83.13ZM82.81 86.45C85.01 86.45 85.97 85.45 85.97 83.15V80.91C85.97 78.84 85.26 77.51 83.13 77.51H80.43V86.45H82.81Z" fill="#263238"/>
<path d="M90.58 91.22L89.58 95.45H88.43L92.6 76.33H94.43L98.68 95.45H97.43L96.43 91.22H90.58ZM90.77 90.13H96.33L93.52 77.78L90.77 90.13Z" fill="#263238"/>
<path d="M108.77 81V82.42H107.57V80.92C107.57 78.92 106.78 77.32 104.68 77.32C102.58 77.32 101.79 78.88 101.79 80.92V90.85C101.79 92.85 102.58 94.42 104.68 94.42C106.78 94.42 107.57 92.89 107.57 90.85V86.73H105V85.59H108.73V90.77C108.73 93.52 107.53 95.59 104.61 95.59C101.69 95.59 100.5 93.52 100.5 90.77V81C100.5 78.25 101.7 76.18 104.61 76.18C107.52 76.18 108.77 78.27 108.77 81Z" fill="#263238"/>
<path d="M117.34 85.2V86.34H112.13V94.34H118.4V95.49H110.87V76.36H118.4V77.51H112.13V85.2H117.34Z" fill="#263238"/>
<path d="M125.82 95.45H124.67V76.36H126.31L132 92.48V76.36H133.14V95.45H131.75L125.75 78.45L125.82 95.45Z" fill="#263238"/>
<path d="M135.26 81C135.26 78.22 136.54 76.18 139.43 76.18C142.32 76.18 143.66 78.18 143.66 81V90.77C143.66 93.55 142.37 95.59 139.43 95.59C136.49 95.59 135.26 93.59 135.26 90.77V81ZM136.51 90.85C136.51 92.92 137.33 94.45 139.43 94.45C141.53 94.45 142.43 92.92 142.43 90.85V80.92C142.43 78.85 141.59 77.32 139.43 77.32C137.27 77.32 136.51 78.85 136.51 80.92V90.85Z" fill="#263238"/>
<path d="M149 95.45V77.51H145.13V76.36H154.13V77.51H150.23V95.45H149Z" fill="#263238"/>
<path d="M166.08 85.66V86.8H161.14V95.45H159.89V76.36H167.14V77.51H161.14V85.66H166.08Z" fill="#263238"/>
<path d="M169 81C169 78.22 170.28 76.18 173.17 76.18C176.06 76.18 177.4 78.18 177.4 81V90.77C177.4 93.55 176.12 95.59 173.17 95.59C170.22 95.59 169 93.59 169 90.77V81ZM170.25 90.85C170.25 92.92 171.07 94.45 173.17 94.45C175.27 94.45 176.17 92.92 176.17 90.85V80.92C176.17 78.85 175.33 77.32 173.17 77.32C171.01 77.32 170.25 78.85 170.25 80.92V90.85Z" fill="#263238"/>
<path d="M180.64 90.84C180.64 92.84 181.41 94.47 183.51 94.47C185.61 94.47 186.37 92.89 186.37 90.84V76.36H187.54V90.79C187.54 93.51 186.4 95.61 183.48 95.61C180.56 95.61 179.39 93.51 179.39 90.79V76.36H180.64V90.84Z" fill="#263238"/>
<path d="M190.84 95.45H189.7V76.36H191.33L197.06 92.48V76.36H198.21V95.45H196.81L190.81 78.45L190.84 95.45Z" fill="#263238"/>
<path d="M204.56 76.36C207.51 76.36 208.79 78.3 208.79 81.11V90.7C208.79 93.51 207.51 95.45 204.56 95.45H200.36V76.36H204.56ZM204.56 94.3C206.69 94.3 207.56 92.86 207.56 90.76V81.05C207.56 78.95 206.66 77.51 204.56 77.51H201.65V94.3H204.56Z" fill="#263238"/>
<path d="M268 272.13L281.61 240H289.76V272.13H293.29V278.92H289.76V287.55H282.42V278.92H268V272.13ZM282.4 272.13V254.27L274.86 272.13H282.4Z" fill="#263238"/>
<path d="M296.08 251.41C296.08 243.81 300.08 239.41 307.42 239.41C314.76 239.41 318.76 243.76 318.76 251.41V276.13C318.76 283.74 314.76 288.13 307.42 288.13C300.08 288.13 296.08 283.78 296.08 276.13V251.41ZM303.55 276.61C303.55 280.01 305.04 281.3 307.42 281.3C309.8 281.3 311.29 280.01 311.29 276.61V250.94C311.29 247.54 309.79 246.25 307.42 246.25C305.05 246.25 303.55 247.54 303.55 250.94V276.61Z" fill="#263238"/>
<path d="M321.82 272.13L335.4 240H343.55V272.13H347.08V278.92H343.55V287.55H336.21V278.92H321.82V272.13ZM336.21 272.13V254.27L328.68 272.13H336.21Z" fill="#263238"/>
</g>
<defs>
<clipPath id="clip0_0_3">
<rect width="432" height="397" fill="white"/>
</clipPath>
</defs>
</svg>
